<?xml version="1.0" encoding="utf-8"?>
<!-- Generator: Adobe Illustrator 28.2.0, SVG Export Plug-In . SVG Version: 6.00 Build 0)  -->
<svg version="1.1" id="Layer_2_00000174600809185684670090000009085209219850460837_"
	 xmlns="http://www.w3.org/2000/svg" xmlns:xlink="http://www.w3.org/1999/xlink" x="0px" y="0px" viewBox="0 0 295.3 85.4"
	 style="enable-background:new 0 0 295.3 85.4;" xml:space="preserve">
<style type="text/css">
	.st0{fill:#FFF2F1;}
	.st1{fill:none;stroke:#FFF2F1;stroke-width:3.5;stroke-miterlimit:10;}
</style>
<g id="Layer_1-2">
	<g>
		<g>
			<g>
				<path class="st0" d="M93.4,51.3l11.4-36.5h13l11.8,36.5h-10.8l-4.1-14.1c-0.9-3.1-1.7-6.2-2.5-9.5s-1.5-6.6-2.2-9.9h2.2
					c-0.7,3.3-1.3,6.5-2,9.9s-1.4,6.5-2.3,9.5L104,51.3H93.4z M101.8,44.3v-7.4h19.3v7.4H101.8z"/>
				<path class="st0" d="M132.8,51.3V14.9h9.5v28.5h14.2v8L132.8,51.3L132.8,51.3z"/>
				<path class="st0" d="M160.1,51.3V14.9h9.5v28.5h14.2v8L160.1,51.3L160.1,51.3z"/>
				<path class="st0" d="M202.4,51.8c-3.2,0-6.1-0.7-8.6-2.2c-2.6-1.4-4.6-3.5-6.1-6.3s-2.3-6.2-2.3-10.2s0.8-7.5,2.3-10.3
					s3.6-4.9,6.1-6.3c2.6-1.4,5.5-2.1,8.6-2.1s6.1,0.7,8.6,2.1s4.6,3.5,6.1,6.3s2.3,6.2,2.3,10.3s-0.8,7.5-2.3,10.2
					c-1.5,2.8-3.6,4.9-6.1,6.3C208.4,51.1,205.6,51.8,202.4,51.8L202.4,51.8z M202.4,43.2c1.6,0,2.9-0.4,4-1.2s1.9-1.9,2.4-3.4
					s0.8-3.3,0.8-5.5s-0.3-4-0.8-5.5s-1.4-2.6-2.4-3.4c-1.1-0.8-2.4-1.2-4-1.2s-2.9,0.4-4,1.2s-1.9,1.9-2.4,3.4s-0.8,3.4-0.8,5.5
					s0.3,4,0.8,5.5s1.4,2.6,2.4,3.4C199.5,42.8,200.8,43.2,202.4,43.2z"/>
				<path class="st0" d="M223.3,51.3V14.9h10.4l8.4,14.3c0.7,1.2,1.4,2.5,2,3.7s1.2,2.6,1.8,4.1s1.2,3.2,1.8,5.2h-0.8
					c-0.1-1.3-0.2-2.8-0.3-4.6c-0.1-1.7-0.2-3.5-0.3-5.1c-0.1-1.7-0.1-3.1-0.1-4.3V14.8h9.8v36.5h-10.4L237.7,38
					c-0.9-1.5-1.6-2.9-2.3-4.2s-1.3-2.7-1.9-4.2s-1.3-3.2-2.1-5.1h1c0.1,1.7,0.2,3.4,0.4,5.1c0.1,1.7,0.2,3.3,0.3,4.7
					c0.1,1.5,0.1,2.7,0.1,3.7v13.3H223.3L223.3,51.3z"/>
				<path class="st0" d="M259.2,51.3l11.4-36.5h13l11.8,36.5h-10.8l-4.1-14.1c-0.9-3.1-1.7-6.2-2.5-9.5s-1.5-6.6-2.2-9.9h2.2
					c-0.7,3.3-1.3,6.5-2,9.9c-0.7,3.3-1.4,6.5-2.3,9.5l-3.9,14.1L259.2,51.3L259.2,51.3z M267.6,44.3v-7.4h19.3v7.4H267.6z"/>
			</g>
			<g>
				<path class="st0" d="M94.3,79.9V60.8h13.2v3.7h-8.7v3.9h8V72h-8v4.2h8.7v3.7L94.3,79.9L94.3,79.9z"/>
				<path class="st0" d="M121.9,80.2c-1.6,0-3-0.2-4.2-0.7s-2.1-1.2-2.8-2.2s-1-2.2-1-3.7h4.3c0,0.6,0.2,1.1,0.5,1.6
					c0.3,0.4,0.7,0.7,1.2,0.9c0.5,0.2,1.1,0.3,1.8,0.3c0.6,0,1.2-0.1,1.6-0.3s0.8-0.4,1-0.7s0.4-0.7,0.4-1.1s-0.1-0.7-0.3-0.9
					s-0.6-0.5-1-0.7s-1-0.4-1.7-0.5l-2-0.5c-1.7-0.4-2.9-1-3.9-1.8s-1.4-2-1.4-3.4c0-1.2,0.3-2.2,1-3.1s1.5-1.6,2.6-2.1
					s2.4-0.7,3.8-0.7s2.8,0.2,3.8,0.8c1.1,0.5,1.9,1.2,2.5,2.1c0.6,0.9,0.9,1.9,0.9,3.1h-4.3c-0.1-0.7-0.3-1.2-0.8-1.6
					s-1.2-0.6-2.1-0.6c-0.6,0-1.1,0.1-1.5,0.2c-0.4,0.2-0.7,0.4-0.9,0.7c-0.2,0.3-0.3,0.6-0.3,0.9c0,0.4,0.1,0.7,0.3,1
					c0.2,0.3,0.6,0.5,1,0.7s0.9,0.3,1.5,0.5l1.7,0.4c0.9,0.2,1.7,0.5,2.5,0.8c0.7,0.3,1.3,0.7,1.8,1.2s0.9,1,1.1,1.6
					c0.3,0.6,0.4,1.3,0.4,2.1c0,1.2-0.3,2.2-0.9,3.1c-0.6,0.9-1.5,1.5-2.6,2C124.9,79.9,123.5,80.1,121.9,80.2L121.9,80.2z"/>
				<path class="st0" d="M143.6,80.2c-1.6,0-3-0.2-4.1-0.7s-2.1-1.2-2.8-2.2s-1-2.2-1-3.7h4.3c0,0.6,0.2,1.1,0.5,1.6
					c0.3,0.4,0.7,0.7,1.2,0.9s1.1,0.3,1.8,0.3c0.6,0,1.2-0.1,1.6-0.3s0.8-0.4,1-0.7s0.4-0.7,0.4-1.1s-0.1-0.7-0.3-0.9
					c-0.2-0.3-0.6-0.5-1-0.7s-1-0.4-1.7-0.5l-2-0.5c-1.6-0.4-2.9-1-3.9-1.8s-1.4-2-1.4-3.4c0-1.2,0.3-2.2,1-3.1s1.5-1.6,2.6-2.1
					s2.4-0.7,3.8-0.7s2.8,0.2,3.8,0.8s1.9,1.2,2.5,2.1c0.6,0.9,0.9,1.9,0.9,3.1h-4.3c-0.1-0.7-0.3-1.2-0.8-1.6s-1.2-0.6-2.1-0.6
					c-0.6,0-1.1,0.1-1.5,0.2c-0.4,0.2-0.7,0.4-0.9,0.7c-0.2,0.3-0.3,0.6-0.3,0.9c0,0.4,0.1,0.7,0.4,1c0.2,0.3,0.6,0.5,1,0.7
					s0.9,0.3,1.5,0.5l1.6,0.4c0.9,0.2,1.7,0.5,2.5,0.8c0.7,0.3,1.3,0.7,1.8,1.2s0.9,1,1.1,1.6c0.3,0.6,0.4,1.3,0.4,2.1
					c0,1.2-0.3,2.2-0.9,3.1c-0.6,0.9-1.5,1.5-2.6,2S145.2,80.1,143.6,80.2L143.6,80.2z"/>
				<path class="st0" d="M157.8,79.9V60.8H171v3.7h-8.7v3.9h8V72h-8v4.2h8.7v3.7L157.8,79.9L157.8,79.9z"/>
				<path class="st0" d="M178.2,79.9V60.8h5l5.3,8.6c0.3,0.6,0.7,1.2,1,1.8c0.3,0.6,0.7,1.3,1,2s0.6,1.6,1,2.6H191
					c-0.1-0.7-0.1-1.5-0.2-2.3c-0.1-0.8-0.1-1.7-0.1-2.5s-0.1-1.5-0.1-2v-8.1h4.6V80h-5l-4.9-7.9c-0.4-0.7-0.8-1.4-1.2-2.1
					s-0.7-1.3-1.1-2.1c-0.4-0.8-0.8-1.7-1.2-2.7h0.5c0.1,0.9,0.1,1.8,0.2,2.7c0.1,0.9,0.1,1.7,0.1,2.4c0,0.7,0.1,1.3,0.1,1.8V80
					L178.2,79.9L178.2,79.9z"/>
				<path class="st0" d="M201.9,64.5v-3.7H218v3.7h-5.8v15.4h-4.5V64.5H201.9z"/>
				<path class="st0" d="M229.1,60.8v19.1h-4.5V60.8H229.1z"/>
				<path class="st0" d="M235.6,79.9l6.4-19.1h6.1l6.6,19.1h-5.1l-2.6-8.3c-0.4-1.4-0.8-2.9-1.2-4.4c-0.4-1.6-0.8-3.2-1.2-4.9h1
					c-0.4,1.7-0.8,3.3-1.1,4.9c-0.4,1.6-0.7,3-1.1,4.4l-2.6,8.3H235.6L235.6,79.9z M239.9,75.8v-3.5h10.3v3.5H239.9z"/>
				<path class="st0" d="M260.9,79.9V60.8h4.5v15.4h8v3.7L260.9,79.9L260.9,79.9z"/>
				<path class="st0" d="M287.5,80.2c-1.6,0-3-0.2-4.1-0.7s-2.1-1.2-2.8-2.2c-0.7-1-1-2.2-1-3.7h4.3c0,0.6,0.2,1.1,0.5,1.6
					c0.3,0.4,0.7,0.7,1.2,0.9s1.1,0.3,1.8,0.3c0.6,0,1.2-0.1,1.6-0.3c0.5-0.2,0.8-0.4,1-0.7c0.2-0.3,0.4-0.7,0.4-1.1
					s-0.1-0.7-0.3-0.9s-0.6-0.5-1-0.7c-0.5-0.2-1-0.4-1.7-0.5l-2-0.5c-1.6-0.4-2.9-1-3.9-1.8s-1.4-2-1.4-3.4c0-1.2,0.3-2.2,1-3.1
					c0.6-0.9,1.5-1.6,2.6-2.1s2.4-0.7,3.8-0.7s2.8,0.2,3.8,0.8s1.9,1.2,2.5,2.1c0.6,0.9,0.9,1.9,0.9,3.1h-4.3
					c-0.1-0.7-0.3-1.2-0.8-1.6s-1.2-0.6-2.1-0.6c-0.6,0-1.1,0.1-1.5,0.2c-0.4,0.2-0.7,0.4-0.9,0.7c-0.2,0.3-0.3,0.6-0.3,0.9
					c0,0.4,0.1,0.7,0.4,1c0.2,0.3,0.6,0.5,1,0.7s0.9,0.3,1.5,0.5l1.6,0.4c0.9,0.2,1.7,0.5,2.5,0.8c0.7,0.3,1.3,0.7,1.8,1.2
					s0.9,1,1.1,1.6s0.4,1.3,0.4,2.1c0,1.2-0.3,2.2-0.9,3.1s-1.5,1.5-2.6,2C290.4,79.9,289,80.1,287.5,80.2L287.5,80.2z"/>
			</g>
		</g>
		<g>
			<path class="st1" d="M30.2,19.7C33.5,11.9,39,5.8,45.9,2C52,6.6,56.9,12.6,60,19.4"/>
			<path class="st1" d="M30.2,19.7C33.5,11.9,39,5.8,45.9,2C52,6.6,56.9,12.6,60,19.4"/>
			<path class="st1" d="M30.2,19.7c7,3.7,12.1,9.6,15.4,16.9"/>
			<path class="st1" d="M45.5,36.6C45.6,36.4,45.5,36.8,45.5,36.6c2.8-7.5,7.8-13.5,14.6-17.1c0.9,1.9,1.6,3.9,2.2,5.9
				c1.5,5.1,2,10.6,1.4,16.3c0,0.3-0.1,0.7-0.1,1"/>
			<path class="st1" d="M45.5,42.8L45.5,42.8"/>
			<path class="st1" d="M30.2,19.7C33.5,11.9,39,5.8,45.9,2C52,6.6,56.9,12.6,60,19.4"/>
			<path class="st1" d="M83.7,14.7c-0.2,0.6-0.4,1.2-0.7,1.8c-5.6,14.4-11.9,21.3-18.8,25.7c-0.2,0.1-0.5,0.3-0.7,0.4
				c0-0.3,0.1-0.7,0.1-1c0.6-5.7,0.1-11.2-1.4-16.3c-0.6-2-1.3-4-2.2-5.9c1.9-1.1,4-1.9,6.2-2.6c4.4-1.4,9.4-2.1,14.9-2.1
				C82,14.7,82.8,14.7,83.7,14.7L83.7,14.7z"/>
			<path class="st1" d="M6.8,14.7c0.2,0.6,0.4,1.2,0.7,1.8c5.6,14.4,11.9,21.3,18.8,25.7c0.2,0.1,0.5,0.3,0.7,0.4
				c0-0.3-0.1-0.7-0.1-1c-0.6-5.7-0.1-11.2,1.4-16.3c0.6-2,1.3-4,2.2-5.9c-1.9-1.1-4-1.9-6.2-2.6c-4.4-1.4-9.4-2.1-14.9-2.1
				C8.4,14.7,7.6,14.7,6.8,14.7L6.8,14.7z"/>
			<path class="st1" d="M63.5,42.6c0-0.3,0.1-0.7,0.1-1c0.6-5.7,0.1-11.2-1.4-16.3c-0.6-2-1.3-4-2.2-5.9C56.9,12.6,52,6.7,45.9,2
				C39,5.8,33.5,11.9,30.2,19.7c-0.7,1.6-1.3,3.3-1.8,5.1"/>
			<path class="st1" d="M45.5,42.8L45.5,42.8"/>
			<path class="st1" d="M45,62c0.5,0.2-0.1,0.2-0.1,0.2s0.9,0.1,0.2,0.4c-1.6,0.6-4.8,1.9-9.1,3.7c-1.9,0.8-4,1.7-6.2,2.8
				c-7.9,3.7-14.4,0.3-14.4-6.3s5.3-10.7,14.4-6.3c0.5,0.2,1,0.5,1.5,0.7C37.6,60.2,42.9,61.1,45,62L45,62z"/>
			<path class="st1" d="M74.9,62.9c0,6.6-6.5,9.9-14.4,6.3c-2.9-1.4-5.6-2.6-7.9-3.5c-2.2-0.9-4-1.7-5.4-2.2c0,0,0,0-0.1,0
				c-0.8-0.3-0.8-1.5,0.1-1.8c0.1,0,0.2,0,0.3-0.1c2.4-0.6,5.9-1.7,10-3.5c1-0.4,2-0.9,3-1.4C69.6,52.2,74.9,56.3,74.9,62.9
				L74.9,62.9z"/>
			<polyline class="st1" points="45.5,85.4 45.5,77.1 45.5,73.8 45.5,73.3 45.5,69.9 45.5,62.2 45.5,42.8 45.5,42.8 45.5,36.8 
				45.5,36.6 			"/>
		</g>
	</g>
</g>
</svg>
