<?xml version="1.0" encoding="UTF-8"?>
<svg id="Layer_2" data-name="Layer 2" xmlns="http://www.w3.org/2000/svg" viewBox="0 0 78.32 87.77">
  <defs>
    <style>
      .cls-1 {
        fill: #fff2f1;
        fill-rule: evenodd;
        stroke-width: 0px;
      }
    </style>
  </defs>
  <g id="Layer_1-2" data-name="Layer 1">
    <path class="cls-1" d="M45.87,64.3c-.26,6.77-5.96,12.21-12.95,12.21-1.6,0-3.13-.28-4.54-.81,1.41.52,2.94.81,4.54.81,6.99,0,12.69-5.44,12.95-12.21l.02-60.47h11.3c1.09,5.75,4.58,10.68,9.42,13.76,0,0,0,0,0,0,3.37,2.14,7.38,3.4,11.69,3.4v3.36h0v11.73c-8.01,0-15.43-2.5-21.48-6.75v30.66c0,15.31-12.75,27.77-28.42,27.77-6.06,0-11.67-1.87-16.29-5.03,0,0,0,0,0,0-7.32-5.03-12.12-13.34-12.12-22.73,0-15.31,12.75-27.77,28.42-27.77,1.3,0,2.57.1,3.83.27v3.57c-14.3.33-26.02,11.01-27.57,24.66,1.56-13.65,13.28-24.33,27.57-24.66v11.83c-1.21-.37-2.49-.59-3.83-.59-7.16,0-12.98,5.69-12.98,12.68,0,4.87,2.83,9.1,6.96,11.23h0c1.8.93,3.85,1.46,6.02,1.46,6.99,0,12.69-5.44,12.95-12.21l.02-60.47h15.44c0,1.31.13,2.59.36,3.83h-11.3l-.03,60.47Z"/>
  </g>
</svg>